HIERARCHY
ROOT Hips
{
    OFFSET   0.000000   0.000000   0.000000
    CHANNELS 6 Xposition Yposition Zposition Zrotation Xrotation Yrotation
    JOINT Chest
    {
        OFFSET   0.000000   8.007230   0.000000
        CHANNELS 3 Zrotation Xrotation Yrotation
        JOINT Chest2
        {
            OFFSET   0.000000  22.077100   0.000000
            CHANNELS 3 Zrotation Xrotation Yrotation
            JOINT Neck
            {
                OFFSET   0.000000  23.255100   0.000000
                CHANNELS 3 Zrotation Xrotation Yrotation
                JOINT Head
                {
                    OFFSET   0.000000  14.370100   1.956600
                    CHANNELS 3 Zrotation Xrotation Yrotation
                    End Site
                    {
                        OFFSET   0.000000  19.566000   0.000000
                    }
                }
            }
            JOINT LeftCollar
            {
                OFFSET   3.911900  19.017000  -0.467063
                CHANNELS 3 Zrotation Xrotation Yrotation
                JOINT LeftShoulder
                {
                    OFFSET  10.383700   0.000000   0.000000
                    CHANNELS 3 Zrotation Xrotation Yrotation
                    JOINT LeftElbow
                    {
                        OFFSET  26.662100   0.001193   0.000980
                        CHANNELS 3 Zrotation Xrotation Yrotation
                        JOINT LeftWrist
                        {
                            OFFSET  28.869000  -0.000059  -0.000082
                            CHANNELS 3 Zrotation Xrotation Yrotation
                            JOINT LeftFinger0
                            {
                                OFFSET   2.044650  -2.323450   3.252850
                                CHANNELS 3 Zrotation Xrotation Yrotation
                                JOINT LeftFinger01
                                {
                                    OFFSET   3.088130   0.000000   0.000000
                                    CHANNELS 3 Zrotation Xrotation Yrotation
                                    JOINT LeftFinger02
                                    {
                                        OFFSET   2.639460   0.000000   0.000000
                                        CHANNELS 3 Zrotation Xrotation Yrotation
                                        End Site
                                        {
                                            OFFSET   2.582190   0.000000   0.000000
                                        }
                                    }
                                }
                            }
                            JOINT LeftFinger1
                            {
                                OFFSET   8.364480   0.000000   3.252850
                                CHANNELS 3 Zrotation Xrotation Yrotation
                                JOINT LeftFinger11
                                {
                                    OFFSET   4.646930   0.000000   0.000000
                                    CHANNELS 3 Zrotation Xrotation Yrotation
                                    JOINT LeftFinger12
                                    {
                                        OFFSET   2.323470   0.000000   0.000000
                                        CHANNELS 3 Zrotation Xrotation Yrotation
                                        End Site
                                        {
                                            OFFSET   2.273050   0.000000   0.000000
                                        }
                                    }
                                }
                            }
                            JOINT LeftFinger2
                            {
                                OFFSET   8.364490   0.000016   1.078090
                                CHANNELS 3 Zrotation Xrotation Yrotation
                                JOINT LeftFinger21
                                {
                                    OFFSET   5.111610   0.000000   0.000000
                                    CHANNELS 3 Zrotation Xrotation Yrotation
                                    JOINT LeftFinger22
                                    {
                                        OFFSET   2.788150   0.000016   0.000000
                                        CHANNELS 3 Zrotation Xrotation Yrotation
                                        End Site
                                        {
                                            OFFSET   2.727660   0.000000   0.000000
                                        }
                                    }
                                }
                            }
                            JOINT LeftFinger3
                            {
                                OFFSET   7.899780   0.000015  -1.078090
                                CHANNELS 3 Zrotation Xrotation Yrotation
                                JOINT LeftFinger31
                                {
                                    OFFSET   4.646930   0.000000   0.000000
                                    CHANNELS 3 Zrotation Xrotation Yrotation
                                    JOINT LeftFinger32
                                    {
                                        OFFSET   2.323470   0.000000   0.000000
                                        CHANNELS 3 Zrotation Xrotation Yrotation
                                        End Site
                                        {
                                            OFFSET   2.273050   0.000000   0.000000
                                        }
                                    }
                                }
                            }
                            JOINT LeftFinger4
                            {
                                OFFSET   7.435090   0.000000  -3.252850
                                CHANNELS 3 Zrotation Xrotation Yrotation
                                JOINT LeftFinger41
                                {
                                    OFFSET   3.717550   0.000000   0.000000
                                    CHANNELS 3 Zrotation Xrotation Yrotation
                                    JOINT LeftFinger42
                                    {
                                        OFFSET   1.858770   0.000000   0.000000
                                        CHANNELS 3 Zrotation Xrotation Yrotation
                                        End Site
                                        {
                                            OFFSET   1.818440   0.000000   0.000000
                                        }
                                    }
                                }
                            }
                        }
                    }
                }
            }
            JOINT RightCollar
            {
                OFFSET  -3.911910  19.017000  -0.467062
                CHANNELS 3 Zrotation Xrotation Yrotation
                JOINT RightShoulder
                {
                    OFFSET -10.383700   0.000014   0.000000
                    CHANNELS 3 Zrotation Xrotation Yrotation
                    JOINT RightElbow
                    {
                        OFFSET -26.662100   0.001225   0.001091
                        CHANNELS 3 Zrotation Xrotation Yrotation
                        JOINT RightWrist
                        {
                            OFFSET -28.869000  -0.000020  -0.000085
                            CHANNELS 3 Zrotation Xrotation Yrotation
                            JOINT RightFinger0
                            {
                                OFFSET  -2.044650  -2.323490   3.252850
                                CHANNELS 3 Zrotation Xrotation Yrotation
                                JOINT RightFinger01
                                {
                                    OFFSET  -3.088130   0.000000   0.000000
                                    CHANNELS 3 Zrotation Xrotation Yrotation
                                    JOINT RightFinger02
                                    {
                                        OFFSET  -2.639460   0.000000   0.000000
                                        CHANNELS 3 Zrotation Xrotation Yrotation
                                        End Site
                                        {
                                            OFFSET  -2.582190   0.000000   0.000000
                                        }
                                    }
                                }
                            }
                            JOINT RightFinger1
                            {
                                OFFSET  -8.364480   0.000000   3.252850
                                CHANNELS 3 Zrotation Xrotation Yrotation
                                JOINT RightFinger11
                                {
                                    OFFSET  -4.646930   0.000000   0.000000
                                    CHANNELS 3 Zrotation Xrotation Yrotation
                                    JOINT RightFinger12
                                    {
                                        OFFSET  -2.323470   0.000000   0.000000
                                        CHANNELS 3 Zrotation Xrotation Yrotation
                                        End Site
                                        {
                                            OFFSET  -2.273050   0.000000   0.000000
                                        }
                                    }
                                }
                            }
                            JOINT RightFinger2
                            {
                                OFFSET  -8.364480   0.000000   1.078090
                                CHANNELS 3 Zrotation Xrotation Yrotation
                                JOINT RightFinger21
                                {
                                    OFFSET  -5.111620   0.000000   0.000000
                                    CHANNELS 3 Zrotation Xrotation Yrotation
                                    JOINT RightFinger22
                                    {
                                        OFFSET  -2.788160   0.000000   0.000000
                                        CHANNELS 3 Zrotation Xrotation Yrotation
                                        End Site
                                        {
                                            OFFSET  -2.727660   0.000000   0.000000
                                        }
                                    }
                                }
                            }
                            JOINT RightFinger3
                            {
                                OFFSET  -7.899780   0.000000  -1.078090
                                CHANNELS 3 Zrotation Xrotation Yrotation
                                JOINT RightFinger31
                                {
                                    OFFSET  -4.646930   0.000000   0.000000
                                    CHANNELS 3 Zrotation Xrotation Yrotation
                                    JOINT RightFinger32
                                    {
                                        OFFSET  -2.323470   0.000000   0.000000
                                        CHANNELS 3 Zrotation Xrotation Yrotation
                                        End Site
                                        {
                                            OFFSET  -2.273050   0.000000   0.000000
                                        }
                                    }
                                }
                            }
                            JOINT RightFinger4
                            {
                                OFFSET  -7.435090   0.000000  -3.252850
                                CHANNELS 3 Zrotation Xrotation Yrotation
                                JOINT RightFinger41
                                {
                                    OFFSET  -3.717550   0.000000   0.000000
                                    CHANNELS 3 Zrotation Xrotation Yrotation
                                    JOINT RightFinger42
                                    {
                                        OFFSET  -1.858760   0.000000   0.000000
                                        CHANNELS 3 Zrotation Xrotation Yrotation
                                        End Site
                                        {
                                            OFFSET  -1.818440   0.000000   0.000000
                                        }
                                    }
                                }
                            }
                        }
                    }
                }
            }
        }
    }
    JOINT LeftHip
    {
        OFFSET   9.783030   0.000000   0.000000
        CHANNELS 3 Zrotation Xrotation Yrotation
        JOINT LeftKnee
        {
            OFFSET   0.000063 -41.789100   0.000608
            CHANNELS 3 Zrotation Xrotation Yrotation
            JOINT LeftAnkle
            {
                OFFSET   0.000048 -41.133200  -0.000184
                CHANNELS 3 Zrotation Xrotation Yrotation
                JOINT LeftToe
                {
                    OFFSET   0.000000  -6.358960  14.674500
                    CHANNELS 3 Zrotation Xrotation Yrotation
                    End Site
                    {
                        OFFSET   0.000000   0.000000   3.913200
                    }
                }
            }
        }
    }
    JOINT RightHip
    {
        OFFSET  -9.783030   0.000000   0.000000
        CHANNELS 3 Zrotation Xrotation Yrotation
        JOINT RightKnee
        {
            OFFSET   0.000071 -41.789100   0.001239
            CHANNELS 3 Zrotation Xrotation Yrotation
            JOINT RightAnkle
            {
                OFFSET   0.000037 -41.133200  -0.000166
                CHANNELS 3 Zrotation Xrotation Yrotation
                JOINT RightToe
                {
                    OFFSET   0.000000  -6.358960  14.674500
                    CHANNELS 3 Zrotation Xrotation Yrotation
                    End Site
                    {
                        OFFSET   0.000000   0.000000   3.913200
                    }
                }
            }
        }
    }
}
MOTION
Frames: 4
Frame Time:   0.016667
  0.774819  89.962200   1.378910  -2.229750 -16.518400  -3.888330  -1.143650  12.855200   0.620997  -2.534290  25.694000   1.575130   0.744051  -4.487230   0.058239   1.243750  -9.094480  12.193800  -9.476600  -7.593690   3.087720 -62.462800  19.030100 -21.150300  -0.211625  -6.926820 -60.077800 -40.256400 -59.262800 -30.674000  52.465200  40.764400 -81.645800   4.379100   0.000621   0.000000   7.189540   0.001295  -0.001077 -21.674400   6.944230 -16.945000 -18.579500   0.006203  -0.005641 -13.005600   0.004731  -0.002558 -21.109200   5.210140 -13.246800 -21.712400   0.006449  -0.005108 -14.460500   0.005914  -0.002820 -20.394700   0.267721  -0.783076 -20.392700   0.004501  -0.004193 -13.581500   0.003065  -0.001950 -22.429000 -11.221300  25.265800 -37.444800   0.010872  -0.022192 -24.938300   0.011997  -0.009990  13.086000  -5.522420  17.621900  59.684000   4.403380  20.984500  -8.817870 -12.415300  51.055300  40.100800 -70.378300  70.402300 -42.123700  23.119600  57.842000   0.624574   0.002183  -0.000081  -4.687710   0.001063  -0.001404  25.385500   8.092630  16.519000  21.734000  -0.000763  -0.003309  15.213800  -0.000580  -0.000735  14.839700   4.213030  15.517000  15.415600   0.000193  -0.000232  10.266800   0.000100  -0.007473  14.684900   2.548030   9.634420  14.900400  -0.000851  -0.008252   9.923670  -0.007219  -0.004664  16.586300  -2.385920  -7.903370  25.126100  -0.006041  -0.002472  16.734000  -0.004602  -0.003120   1.102360  17.618500   4.696240  -0.493310   3.203810  13.537100  -4.368190  -5.807270   5.168890   0.000000   0.000000   0.000000   0.941134  15.072100  -9.125040  -1.528690   8.714350  -8.242900  -4.763270  -3.814530   3.100110   0.000000   0.000000   0.000000
  0.919568  89.939400   1.402060  -2.137350 -16.275100  -3.595890  -1.157970  12.750700   0.606713  -2.557010  25.485000   1.543930   0.583745  -4.751750   0.049139   0.974440  -9.632930  12.059300  -9.157990  -7.434300   3.597120 -63.471500  18.184600 -20.175200  -0.103775  -5.809960 -61.079700 -40.162700 -57.949900 -30.261000  52.679100  41.500300 -83.096600   4.436300   0.000322   0.000026   7.218140   0.001431  -0.001265 -23.373100   7.235810 -16.234300 -19.966200   0.004945  -0.005641 -13.976300   0.004584  -0.002569 -22.645400   5.399310 -12.725700 -23.246100   0.006233  -0.004134 -15.481900   0.004763  -0.002934 -22.069900   0.066347  -0.190703 -22.069500   0.004104  -0.002904 -14.698200   0.002773  -0.001323 -24.252500 -11.627400  24.103500 -40.129200   0.010727  -0.016404 -26.726100   0.010887  -0.006603  12.927500  -5.125100  17.396400  60.929500   3.217370  20.249300  -8.787320 -12.037100  52.087900  41.239000 -69.566800  71.373800 -41.955300  24.017300  59.385500   0.629483   0.002023  -0.000022  -4.685260   0.001056  -0.001194  25.662500   8.100400  16.343600  21.950600  -0.000194  -0.003308  15.365400  -0.000299  -0.000740  15.357800   4.315920  15.298700  15.937600   0.000571  -0.000234  10.614400   0.000191  -0.007471  15.354600   2.675010   9.529540  15.553400  -0.000157  -0.008252  10.358500  -0.007573  -0.004665  17.660900  -2.506620  -7.825360  26.748500  -0.000538   0.001107  17.814600  -0.000296  -0.003039   1.023650  17.364500   4.783410  -0.475141   3.147770  13.283200  -4.344330  -5.750920   5.097640  -0.000000   0.000000   0.000000   0.841261  14.848500  -9.197400  -1.517840   8.824270  -8.293660  -4.746070  -3.803510   2.977640   0.000000   0.000000   0.000000
  1.066370  89.908100   1.439340  -2.059720 -16.047100  -3.282170  -1.155310  12.628500   0.582827  -2.542550  25.241200   1.490710   0.413704  -4.919830   0.035673   0.693718  -9.974550  12.025200  -8.881490  -7.292490   3.897960 -63.985700  17.738300 -19.487400  -0.045174  -5.217530 -62.092800 -40.402500 -56.866800 -30.156400  53.486900  42.103300 -84.188200   4.493500   0.000000   0.000062   7.246750   0.001557  -0.001454 -24.729800   7.465770 -15.747500 -21.078800   0.003597  -0.005642 -14.755100   0.004537  -0.002579 -23.902300   5.543510 -12.298500 -24.498400   0.006161  -0.002787 -16.316000   0.003363  -0.003041 -23.449800  -0.054377   0.150301 -23.453300   0.003786  -0.001502 -15.619900   0.002495  -0.000661 -25.702800 -11.909900  23.189000 -42.236700   0.009715  -0.007713 -28.129700   0.008163  -0.003830  12.786800  -4.807810  17.153400  61.841300   2.408650  19.565900  -8.720730 -11.600800  53.342100  41.755000 -69.183300  71.774900 -41.772000  24.727000  61.017700   0.663851   0.001684   0.000059  -4.668080   0.001048  -0.000949  25.939600   8.107620  16.168100  22.167100   0.000000  -0.003308  15.517000  -0.000207  -0.000745  15.926800   4.380400  14.987600  16.502900   0.000685  -0.000238  10.990900   0.000204  -0.007469  16.135100   2.709550   9.287050  16.353300   0.000068  -0.008251  10.891300  -0.007894  -0.004667  18.337900  -2.600430  -7.793360  27.773700   0.001799   0.003490  18.497300   0.001564  -0.002898   0.958710  17.112000   4.911590  -0.457725   3.113650  13.022300  -4.319720  -5.700690   4.966950   0.000000   0.000000   0.000000   0.759966  14.662700  -9.241350  -1.492210   8.904690  -8.417210  -4.737250  -3.785220   2.877980  -0.000000   0.000000   0.000000
  1.208950  89.865400   1.476930  -2.024300 -15.898300  -2.993740  -1.133580  12.528100   0.558332  -2.486260  25.041400   1.429920   0.257748  -4.997380   0.022521   0.434389 -10.132300  12.035800  -8.692290  -7.177040   3.985550 -63.826300  18.058900 -19.316300   0.096291  -5.463920 -62.804500 -40.791800 -56.071400 -30.228100  54.636000  42.514600 -84.850800   4.411720  -0.000344   0.000075   7.205850   0.001688  -0.001605 -25.503100   7.640180 -15.637400 -21.725100   0.001620  -0.005649 -15.207500   0.004448  -0.002571 -24.545100   5.611040 -12.077000 -25.138400   0.006018  -0.000791 -16.742200   0.001217  -0.003147 -24.105700   0.031535  -0.050387 -24.108700   0.003457  -0.000069 -16.056400   0.002228  -0.000126 -26.328600 -12.012100  22.800700 -43.136200   0.003925  -0.001937 -28.728700   0.003081  -0.003343  12.695300  -4.614590  16.978100  61.981000   2.697530  19.206200  -9.026010 -12.045200  53.771900  40.689300 -68.829300  70.577800 -41.655800  25.082400  61.785200   0.750542   0.001270   0.000091  -4.624740   0.001050  -0.000671  25.846800   8.077800  16.175000  22.088100   0.000403  -0.003307  15.461700  -0.000023  -0.000742  16.295000   4.442410  14.841300  16.875100   0.000876  -0.000241  11.238800   0.000138  -0.007470  16.693800   2.692150   8.930550  16.901300   0.000494  -0.008245  11.256300  -0.008180  -0.004661  18.518700  -2.587260  -7.700540  28.042400   0.002569   0.004023  18.676300   0.001941  -0.002703   0.930126  16.954000   4.978290  -0.447760   3.067650  12.851600  -4.285910  -5.659910   4.820300   0.000000   0.000000   0.000000   0.725509  14.560800  -9.223970  -1.461130   8.968840  -8.622110  -4.728050  -3.768250   2.804050   0.000000   0.000000  -0.000000
